# xmcd CD database file
#
# Track frame offsets:
#	150
#	22224
#	42371
#	67371
#	89185
#	112525
#	132329
#	151069
#	169893
#	187500
#	204485
#	230004
#	254254
#	273146
#	292520
#
# Disc length: 4161 seconds
#
# Revision: 8
# Processed by: cddbd v1.5PL3 Copyright (c) Steve Scherf et al.
# Submitted via: jetAudio 5
#
DISCID=cc103f0f
DTITLE=萬芳 - 地老天芳 24K黃金精選集
DYEAR=1998
DGENRE=
TTITLE0=猜心
TTITLE1=新不了情
TTITLE2=多事的秋
TTITLE3=戀你
TTITLE4=試著了解
TTITLE5=我記得你眼裡的依戀
TTITLE6=一切如新
TTITLE7=斷線
TTITLE8=FLY AWAY
TTITLE9=割愛
TTITLE10=算了吧
TTITLE11=四季
TTITLE12=就值得了愛
TTITLE13=然後你怎麼說
TTITLE14=孩子氣
EXTD=YEAR: 1998
EXTT0=
EXTT1=
EXTT2=
EXTT3=
EXTT4=
EXTT5=
EXTT6=
EXTT7=
EXTT8=
EXTT9=
EXTT10=
EXTT11=
EXTT12=
EXTT13=
EXTT14=
PLAYORDER=
